<?xml version="1.0" encoding="UTF-8"?>
<svg xmlns="http://www.w3.org/2000/svg" viewBox="55 65 130 115">
  <g fill="#EEC13F">
    <path d="M69.38,81.61v-7.42c33.16-14.24,62.06-14.24,95.18,0v23.5l-9.22-3.66v-12.26c-21.14-8.77-45.06-12.1-66.81-3.46l75.87,30.17c-.2,3.5-.61,6.98-1.23,10.43l-93.8-37.3Z"/>
    <path d="M114.54,166.32c-18.96-11.01-38.57-25.45-44.76-47.42l12.5,4.69c6.45,13.09,18.95,22.5,34.78,32.07,12.24-7.48,20.63-13.77,26.86-20.6l-74.37-29.54c-.21-3.28-.17-7.66-.17-11,6.98,2.83,86.09,34.19,90.19,35.95-9.28,16.75-25.99,28.02-42.52,37.13l-2.52-1.29Z"/>
  </g>
</svg>
