<?xml version="1.0" encoding="UTF-8"?>
<svg id="Camada_1" data-name="Camada 1" xmlns="http://www.w3.org/2000/svg" viewBox="0 0 600 231.11">
  <defs>
    <style>
      .cls-1 {
        fill: #fff;
      }

      .cls-1, .cls-2 {
        stroke-width: 0px;
      }

      .cls-2 {
        fill: #eec13f;
      }
    </style>
  </defs>
  <g>
    <path class="cls-2" d="M69.38,81.61v-7.42c33.16-14.24,62.06-14.24,95.18,0v23.5l-9.22-3.66v-12.26c-21.14-8.77-45.06-12.1-66.81-3.46l75.87,30.17c-.2,3.5-.61,6.98-1.23,10.43l-93.8-37.3Z"/>
    <path class="cls-2" d="M114.54,166.32c-18.96-11.01-38.57-25.45-44.76-47.42l12.5,4.69c6.45,13.09,18.95,22.5,34.78,32.07,12.24-7.48,20.63-13.77,26.86-20.6l-74.37-29.54c-.21-3.28-.17-7.66-.17-11,6.98,2.83,86.09,34.19,90.19,35.95-9.28,16.75-25.99,28.02-42.52,37.13l-2.52-1.29Z"/>
  </g>
  <g>
    <path class="cls-1" d="M201.37,113.41l4.17-8.34c5.67,3.76,12.33,5.75,19.13,5.74,7.44,0,11.33-1.78,11.33-5.12s-2.38-4.16-11.81-4.99c-15.44-1.36-20.69-4.99-20.69-14.34s7.79-14.55,20.97-14.55c7.06-.23,14.01,1.71,19.94,5.54l-3.83,8.06c-4.68-3.02-10.14-4.59-15.71-4.52-6.63,0-10.54,1.85-10.54,4.99s2.39,4.17,11.81,4.99c15.44,1.37,20.69,4.99,20.69,14.35s-7.53,14.67-21.99,14.67c-9.32,0-16.9-2.11-23.47-6.48Z"/>
    <path class="cls-1" d="M270.19,100.29h26.9v-9.14h-37.55v27.92h41.99v-9.16h-31.34v-9.62Z"/>
    <path class="cls-1" d="M259.54,72.64v9.14h41.99v-9.14h-41.99Z"/>
    <path class="cls-1" d="M314.77,96.06c0-15.06,10.17-24.25,26.15-24.25,6.01-.15,11.93,1.49,17,4.71l-3.13,8.62c-3.89-2.52-8.41-3.87-13.04-3.9-9.97,0-16.12,5.66-16.12,14.68s6.21,14.55,16.57,14.55c4.91.01,9.72-1.39,13.86-4.04l3.49,8.6c-4.52,3.21-10.86,4.85-18.07,4.85-16.81,0-26.7-9.01-26.7-23.83Z"/>
    <path class="cls-1" d="M372.26,101.93v-29.29h10.65v27.58c0,7.03,3.77,10.32,11.69,10.32s11.67-3.28,11.67-10.32v-27.58h10.18v29.29c0,11.48-8,17.95-22.13,17.95s-22.07-6.48-22.07-17.95Z"/>
    <path class="cls-1" d="M463.12,119.07l-11.54-17.08h-11.72v17.08h-10.65v-46.43h27.65c10.8,0,16.57,5.12,16.57,14.68,0,7.37-3.42,12.05-9.97,13.86l12.21,17.89h-12.56ZM439.86,92.85h15.81c4.71,0,6.9-1.78,6.9-5.53s-2.18-5.54-6.9-5.54h-15.81v11.07Z"/>
    <path class="cls-1" d="M499.28,100.29h26.9v-9.14h-37.55v27.92h41.99v-9.16h-31.34v-9.62Z"/>
    <path class="cls-1" d="M488.63,72.64v9.14h41.99v-9.14h-41.99Z"/>
    <path class="cls-1" d="M210.58,142.89c1.53-.04,3.06.18,4.52.64,1.1.36,2.1.96,2.93,1.76.71.71,1.24,1.59,1.55,2.55.31.99.46,2.01.45,3.05,0,1.04-.17,2.08-.51,3.06-.33.97-.89,1.86-1.61,2.59-.83.81-1.83,1.43-2.93,1.8-1.41.47-2.9.7-4.39.66h-9.22v-16.1h9.21ZM204.73,156.15h5.86c.99.02,1.98-.13,2.93-.44.71-.24,1.35-.65,1.87-1.19.46-.47.8-1.05,1-1.68.21-.63.31-1.3.31-1.96,0-.66-.1-1.32-.31-1.95-.2-.62-.54-1.18-1-1.64-.52-.53-1.17-.92-1.87-1.14-.95-.3-1.94-.45-2.93-.42h-5.86v10.42Z"/>
    <path class="cls-1" d="M228.68,142.89h3.31v16.1h-3.31v-16.1Z"/>
    <path class="cls-1" d="M250.49,159.31c-1.37.02-2.73-.16-4.04-.53-1.13-.31-2.18-.85-3.1-1.57-.87-.69-1.56-1.58-2.02-2.59-.49-1.12-.73-2.33-.7-3.56-.02-1.25.23-2.48.75-3.62.48-1.04,1.19-1.96,2.08-2.68.97-.75,2.06-1.31,3.24-1.65,1.36-.38,2.76-.57,4.17-.56,1.59-.04,3.17.22,4.67.76,1.2.43,2.27,1.16,3.1,2.12.75.93,1.19,2.07,1.27,3.26h-3.18c-.21-.65-.57-1.24-1.05-1.73-.54-.53-1.21-.92-1.93-1.14-2.17-.63-4.48-.53-6.59.28-.95.41-1.75,1.1-2.31,1.96-.54.88-.82,1.9-.81,2.93-.03,1.02.21,2.03.7,2.93.5.83,1.26,1.47,2.17,1.82,1.18.47,2.45.69,3.72.64,1.04.02,2.08-.13,3.07-.45.81-.27,1.57-.69,2.22-1.24.55-.48.99-1.08,1.26-1.76l1.3-.47c-.05.95-.3,1.88-.71,2.74-.42.86-1,1.62-1.72,2.25-1.57,1.28-3.54,1.93-5.56,1.84ZM257.64,158.99c0-.6.04-1.19.1-1.79,0-.67.15-1.35.25-2.03s.19-1.33.26-1.9h-7.32v-2.12h9.6v7.85h-2.9Z"/>
    <path class="cls-1" d="M269.42,142.89h3.31v16.1h-3.31v-16.1Z"/>
    <path class="cls-1" d="M280.56,142.89h16.97v2.77h-16.97v-2.77ZM287.41,145.3h3.31v13.69h-3.31v-13.69Z"/>
    <path class="cls-1" d="M302.41,158.99l7.57-16.1h3.57l7.64,16.1h-3.6l-6.62-14.51h1.6l-6.57,14.51h-3.59ZM306.42,155.47v-2.77h10.64v2.77h-10.64Z"/>
    <path class="cls-1" d="M331.82,142.89v13.34h10.69v2.77h-14v-16.1h3.31Z"/>
    <path class="cls-1" d="M374.06,157.34h-1.57l9.25-14.45h3.31v16.1h-3.31v-11.71l.79.22-7.32,11.48h-3.7l-7.32-11.42.79-.23v11.71h-3.31v-16.1h3.31l9.08,14.41Z"/>
    <path class="cls-1" d="M392.36,158.99l7.57-16.1h3.57l7.64,16.1h-3.6l-6.63-14.51h1.58l-6.56,14.51h-3.57ZM396.37,155.47v-2.77h10.64v2.77h-10.64Z"/>
    <path class="cls-1" d="M418.48,158.99v-16.1h10.92c1.1-.02,2.19.16,3.24.51.87.3,1.62.85,2.15,1.6.54.82.82,1.79.78,2.77.02.67-.12,1.34-.4,1.95-.26.52-.64.96-1.11,1.29-.49.35-1.04.6-1.63.76-.64.18-1.3.3-1.96.34l-.35-.2c.96,0,1.91.1,2.85.29.65.12,1.25.45,1.68.95.41.59.61,1.3.56,2.02v3.84h-3.31v-3.62c.04-.51-.07-1.02-.32-1.46-.14-.19-.31-.35-.51-.47s-.42-.2-.65-.24c-.79-.15-1.6-.21-2.4-.19h-6.24v5.94l-3.31.04ZM421.78,150.45h7.61c.77.05,1.53-.19,2.12-.67.24-.23.43-.52.56-.83.13-.31.18-.65.17-.99.02-.32-.04-.63-.17-.92-.13-.29-.32-.54-.57-.75-.63-.42-1.37-.62-2.12-.57h-7.61v4.73Z"/>
    <path class="cls-1" d="M443.98,142.89h3.31v16.1h-3.31v-16.1ZM450.87,151.14v-1.39l10.85,9.24h-4.79l-9.65-8.46,8.58-7.64h4.7l-9.69,8.26Z"/>
    <path class="cls-1" d="M472.51,152.27v3.95h12.41v2.77h-15.72v-16.1h15.69v2.77h-12.39v4h10.15v2.62h-10.15Z"/>
    <path class="cls-1" d="M491.88,142.89h16.97v2.77h-16.97v-2.77ZM498.73,145.3h3.31v13.69h-3.31v-13.69Z"/>
    <path class="cls-1" d="M515.18,153.56h3.35c.07.59.35,1.13.79,1.54.51.49,1.13.85,1.8,1.07.81.26,1.65.39,2.5.38.71.02,1.42-.07,2.09-.28.47-.13.89-.4,1.22-.76.27-.34.42-.77.41-1.2,0-.2-.04-.4-.12-.57s-.22-.33-.38-.45c-.48-.3-1.02-.51-1.58-.6-.7-.17-1.64-.33-2.81-.48-.87-.12-1.73-.31-2.58-.57-.76-.21-1.48-.52-2.15-.92-.6-.36-1.1-.87-1.46-1.46-.37-.59-.56-1.28-.54-1.98-.02-.9.26-1.77.81-2.49.62-.77,1.46-1.35,2.4-1.67,1.26-.43,2.58-.63,3.91-.6,1.9-.13,3.79.39,5.36,1.46.61.48,1.1,1.1,1.42,1.81.32.71.46,1.49.41,2.26h-3.21c0-.43-.11-.85-.33-1.22-.22-.37-.53-.68-.9-.89-.87-.47-1.85-.7-2.84-.66-.9-.03-1.8.13-2.64.48-.32.13-.59.35-.77.64-.18.29-.27.63-.25.97-.01.28.08.56.25.79.22.26.51.46.83.59.53.2,1.07.36,1.63.47.67.15,1.46.29,2.53.44.87.13,1.73.31,2.58.54.7.19,1.38.48,1.99.88.53.33.98.8,1.29,1.35.34.73.48,1.53.43,2.32-.06.8-.31,1.57-.75,2.24-.59.78-1.4,1.37-2.33,1.68-1.32.43-2.71.63-4.1.59-1.07.02-2.13-.11-3.16-.38-.83-.23-1.63-.58-2.36-1.04-.61-.4-1.16-.89-1.63-1.46-.38-.46-.68-.99-.88-1.55-.16-.4-.24-.83-.23-1.26Z"/>
  </g>
</svg>